<svg xmlns="http://www.w3.org/2000/svg" width="40" height="40" viewBox="0 0 40 40">
    <defs>
        <style>
            .cls-2{fill:none;stroke:#0078d7;stroke-linecap:round;stroke-miterlimit:10;stroke-width:1.5px}
        </style>
    </defs>
    <g id="Group_80" transform="translate(-724 -47)">
        <path id="Rectangle_13" fill="#fff" d="M0 0H40V40H0z" transform="translate(724 47)"/>
        <g id="Group_39" transform="translate(732 57.348)">
            <circle id="Ellipse_7" cx="2.4" cy="2.4" r="2.4" class="cls-2" transform="translate(16.199)"/>
            <path id="Line_15" d="M0 0L14.399 0" class="cls-2" transform="translate(0 2.399)"/>
            <path id="Line_16" d="M0 0L5.4 0" class="cls-2" transform="translate(20.999 2.399)"/>
            <circle id="Ellipse_8" cx="2.4" cy="2.4" r="2.4" class="cls-2" transform="translate(5.4 6.6)"/>
            <path id="Line_17" d="M0 0L3.6 0" class="cls-2" transform="translate(0 8.999)"/>
            <path id="Line_18" d="M0 0L16.199 0" class="cls-2" transform="translate(10.199 8.999)"/>
            <circle id="Ellipse_9" cx="2.4" cy="2.4" r="2.4" class="cls-2" transform="translate(13.799 13.799)"/>
            <path id="Line_19" d="M0 0L11.999 0" class="cls-2" transform="translate(0 16.198)"/>
            <path id="Line_20" d="M0 0L7.799 0" class="cls-2" transform="translate(18.599 16.198)"/>
        </g>
    </g>
</svg>
